<svg role="img" viewBox="0 0 24 24" xmlns="http://www.w3.org/2000/svg" fill="white"><title>Visual Studio Code</title><path d="M23.15 2.587L18.21.21a1.494 1.494 0 0 0-1.705.29l-9.46 8.63-4.12-3.128a.999.999 0 0 0-1.276.057L.327 7.261A1 1 0 0 0 .326 8.74L3.899 12 .326 15.26a1 1 0 0 0 .001 1.479l3.322 3.202a1 1 0 0 0 1.276.057l4.12-3.128 9.46 8.63a1.492 1.492 0 0 0 1.705.29l4.94-2.377A1.5 1.5 0 0 0 24 22.06V3.97a1.5 1.5 0 0 0-.85-1.383zm-17.842 9.413L1.72 9.578l2.588-2.25 1.0 5.419v-.748zm8.68-7.55L18.66 8.02l-4.67 3.98-1.505-1.506 1.503-6.044zm-3.642 9.554l1.505-1.505 4.67 3.98-4.67 3.98-1.505-6.455zm8.68 1.966l-4.67-3.98 4.67-3.98v7.96z"/></svg>
